<?xml version="1.0" encoding="UTF-8" standalone="no"?>
<!DOCTYPE svg PUBLIC "-//W3C//DTD SVG 1.1//EN" "http://www.w3.org/Graphics/SVG/1.1/DTD/svg11.dtd">
<svg width="540" height="166" viewBox="0 0 540 166" version="1.1" xmlns="http://www.w3.org/2000/svg" xmlns:xlink="http://www.w3.org/1999/xlink" xml:space="preserve" xmlns:serif="http://www.serif.com/" style="fill-rule:evenodd;clip-rule:evenodd;stroke-linejoin:round;stroke-miterlimit:2;">
    <g transform="matrix(1,0,0,1,-18309.151289,-5182.725332)">
        <g transform="matrix(1,0,0,1,16787.25,4680)">
            <g transform="matrix(1,0,0,1,710,-315)">
                <path d="M852.869,866.837L829.685,866.837L841.277,835.164L852.869,866.837ZM856.275,876.192L859.885,885.902C860.8,888.343 861.257,889.258 862.274,890.071C863.088,890.732 864.104,891.139 865.274,891.139C866.799,891.139 868.324,890.529 869.29,889.512C871.374,887.377 870.714,885.089 869.646,882.242L847.48,823.216C846.717,821.132 846.158,820.267 845.293,819.454C844.226,818.437 843.006,817.929 841.277,817.929C839.548,817.929 838.328,818.437 837.261,819.454C836.396,820.267 835.837,821.132 835.074,823.216L812.908,882.242C811.84,885.089 811.18,887.377 813.264,889.512C814.23,890.529 815.755,891.139 817.28,891.139C818.45,891.139 819.467,890.732 820.28,890.071C821.297,889.258 821.754,888.343 822.669,885.902L826.279,876.192L856.275,876.192Z" style="fill:rgb(27,33,38);fill-rule:nonzero;"/>
                <path d="M915.227,881.581C908.974,881.581 904.703,880.31 899.822,876.954C897.84,875.582 896.569,875.124 895.145,875.124C893.976,875.124 892.857,875.531 891.942,876.446C890.976,877.412 890.417,878.835 890.417,880.056C890.417,882.699 891.79,884.224 895.552,886.461C900.89,889.664 906.33,891.342 915.024,891.342C930.276,891.342 941.054,883.411 941.054,870.091C941.054,863.787 939.02,858.804 935.156,855.245C932.004,852.398 928.344,850.873 921.734,849.856L913.092,848.535C909.126,847.924 906.991,846.908 905.161,845.281C903.229,843.654 902.517,841.214 902.517,838.57C902.517,831.961 907.092,827.334 915.634,827.334C920.718,827.334 924.124,828.249 928.445,830.893C929.92,831.808 931.699,832.469 932.868,832.469C934.343,832.469 935.41,831.859 936.224,830.893C937.088,829.876 937.495,828.707 937.495,827.538C937.495,825.199 935.614,823.318 933.072,821.996C927.073,818.844 922.904,817.725 916.04,817.725C900.992,817.725 891.84,826.267 891.84,838.875C891.84,844.772 893.569,849.45 897.179,852.754C900.585,855.906 905.008,857.737 910.855,858.601L919.447,859.821C923.056,860.33 925.497,861.245 927.327,862.872C929.361,864.6 930.174,867.142 930.174,870.396C930.174,877.514 924.785,881.581 915.227,881.581Z" style="fill:rgb(199,20,23);fill-rule:nonzero;"/>
                <path d="M993.572,823.216C993.572,821.284 992.657,819.81 991.335,819.047C990.216,818.437 989.2,818.335 986.861,818.335L948.629,818.335C946.29,818.335 945.274,818.437 944.155,819.047C942.833,819.81 941.918,821.284 941.918,823.216C941.918,825.148 942.833,826.622 944.155,827.385C945.274,827.995 946.29,828.097 948.629,828.097L962.254,828.097L962.254,883.665C962.254,886.36 962.305,887.224 963.068,888.648C963.881,890.122 965.559,891.139 967.745,891.139C969.931,891.139 971.609,890.122 972.422,888.648C973.185,887.224 973.236,886.36 973.236,883.665L973.236,828.097L986.861,828.097C989.2,828.097 990.216,827.995 991.335,827.385C992.657,826.622 993.572,825.148 993.572,823.216Z" style="fill:rgb(199,20,23);fill-rule:nonzero;"/>
                <path d="M1000.232,888.648C1001.045,890.122 1002.723,891.139 1004.909,891.139C1007.095,891.139 1008.773,890.122 1009.586,888.648C1010.349,887.224 1010.4,886.36 1010.4,883.665L1010.4,860.228L1024.127,860.228L1039.226,886.665C1040.65,889.207 1041.921,891.139 1044.666,891.139C1045.632,891.139 1046.7,890.935 1047.615,890.376C1049.496,889.258 1050.36,887.631 1050.31,885.851C1050.259,884.479 1049.852,883.564 1048.581,881.327L1035.617,858.703C1043.7,856.415 1049.954,849.806 1049.954,839.485C1049.954,827.182 1041.209,818.335 1027.482,818.335L1006.129,818.335C1004.502,818.335 1002.571,818.335 1000.994,819.911C999.418,821.488 999.418,823.419 999.418,825.046L999.418,883.665C999.418,886.36 999.469,887.224 1000.232,888.648ZM1026.669,828.097C1033.99,828.097 1038.972,832.418 1038.972,839.587C1038.972,846.704 1033.99,850.873 1026.669,850.873L1010.4,850.873L1010.4,828.097L1026.669,828.097Z" style="fill:rgb(199,20,23);fill-rule:nonzero;"/>
                <path d="M1063.782,883.97C1068.46,888.648 1074.56,891.342 1082.542,891.342C1090.473,891.342 1096.574,888.648 1101.252,883.97C1108.268,876.954 1108.573,869.735 1108.573,854.534C1108.573,839.332 1108.268,832.113 1101.252,825.097C1096.574,820.42 1090.473,817.725 1082.542,817.725C1074.56,817.725 1068.46,820.42 1063.782,825.097C1056.766,832.113 1056.512,839.332 1056.512,854.534C1056.512,869.735 1056.766,876.954 1063.782,883.97ZM1071.764,877.005C1068.155,873.192 1067.494,868.871 1067.494,854.534C1067.494,840.197 1068.155,835.824 1071.764,832.011C1074.408,829.164 1078.119,827.487 1082.542,827.487C1086.915,827.487 1090.626,829.164 1093.32,832.011C1096.879,835.824 1097.591,840.197 1097.591,854.534C1097.591,868.871 1096.879,873.192 1093.32,877.005C1090.626,879.852 1086.915,881.581 1082.542,881.581C1078.119,881.581 1074.408,879.852 1071.764,877.005Z" style="fill:rgb(199,20,23);fill-rule:nonzero;"/>
                <path d="M1129.722,839.892L1161.141,886.309C1163.328,889.563 1164.954,891.139 1167.547,891.139C1169.225,891.139 1170.598,890.529 1171.716,889.41C1172.936,888.19 1173.292,886.563 1173.292,884.174L1173.292,825.402C1173.292,822.708 1173.241,821.843 1172.479,820.42C1171.665,818.945 1169.988,817.929 1167.802,817.929C1165.615,817.929 1163.938,818.945 1163.124,820.42C1162.362,821.843 1162.311,822.708 1162.311,825.402L1162.311,869.176L1130.891,822.759C1128.705,819.505 1127.078,817.929 1124.486,817.929C1122.808,817.929 1121.435,818.539 1120.317,819.657C1119.096,820.877 1118.741,822.555 1118.741,824.945L1118.741,883.665C1118.741,886.36 1118.791,887.224 1119.554,888.648C1120.368,890.122 1122.045,891.139 1124.231,891.139C1126.418,891.139 1128.095,890.122 1128.909,888.648C1129.671,887.224 1129.722,886.36 1129.722,883.665L1129.722,839.892Z" style="fill:rgb(199,20,23);fill-rule:nonzero;"/>
                <path d="M1194.442,854.534C1194.442,840.756 1194.95,836.13 1198.763,832.011C1201.407,829.164 1204.915,827.487 1209.186,827.487C1215.998,827.487 1220.014,831.096 1222.658,837.299C1223.472,839.18 1224.183,840.502 1225.353,841.417C1226.115,842.027 1227.234,842.485 1228.607,842.485C1230.132,842.485 1231.352,841.976 1232.42,840.959C1233.436,839.943 1233.894,838.722 1233.894,836.841C1233.894,834.248 1232.42,829.571 1228.352,825.199C1223.929,820.471 1218.489,817.725 1209.389,817.725C1201.509,817.725 1195.408,820.42 1190.73,825.097C1183.715,832.113 1183.46,839.332 1183.46,854.534C1183.46,869.735 1183.715,876.954 1190.73,883.97C1195.408,888.648 1201.509,891.342 1209.491,891.342C1217.167,891.342 1223.014,888.902 1228.047,883.869C1233.691,878.225 1234.911,872.023 1234.911,860.228L1234.911,859.16C1234.911,857.533 1234.911,855.601 1233.335,854.025C1231.759,852.449 1229.827,852.449 1228.2,852.449L1215.185,852.449C1212.846,852.449 1211.829,852.551 1210.711,853.161C1209.389,853.924 1208.474,855.398 1208.474,857.33C1208.474,859.262 1209.389,860.736 1210.711,861.499C1211.829,862.109 1212.846,862.211 1215.185,862.211L1224.336,862.211C1224.336,869.837 1223.573,873.751 1220.218,877.208C1217.422,880.005 1213.761,881.581 1209.491,881.581C1205.067,881.581 1201.356,879.903 1198.712,877.056C1195.103,873.243 1194.442,868.871 1194.442,854.534Z" style="fill:rgb(199,20,23);fill-rule:nonzero;"/>
                <path d="M1256.06,828.097L1285.141,828.097C1287.48,828.097 1288.496,827.995 1289.615,827.385C1290.937,826.622 1291.852,825.148 1291.852,823.216C1291.852,821.284 1290.937,819.81 1289.615,819.047C1288.496,818.437 1287.48,818.335 1285.141,818.335L1251.79,818.335C1250.163,818.335 1248.231,818.335 1246.655,819.911C1245.079,821.488 1245.079,823.419 1245.079,825.046L1245.079,884.021C1245.079,885.648 1245.079,887.58 1246.655,889.156C1248.231,890.732 1250.163,890.732 1251.79,890.732L1285.141,890.732C1287.48,890.732 1288.496,890.63 1289.615,890.02C1290.937,889.258 1291.852,887.783 1291.852,885.851C1291.852,883.919 1290.937,882.445 1289.615,881.682C1288.496,881.072 1287.48,880.971 1285.141,880.971L1256.06,880.971L1256.06,859.109L1279.955,859.109C1282.294,859.109 1283.311,859.008 1284.429,858.398C1285.751,857.635 1286.666,856.161 1286.666,854.229C1286.666,852.297 1285.751,850.822 1284.429,850.06C1283.311,849.45 1282.294,849.348 1279.955,849.348L1256.06,849.348L1256.06,828.097Z" style="fill:rgb(199,20,23);fill-rule:nonzero;"/>
                <path d="M1300.952,888.648C1301.766,890.122 1303.443,891.139 1305.63,891.139C1307.816,891.139 1309.493,890.122 1310.307,888.648C1311.069,887.224 1311.12,886.36 1311.12,883.665L1311.12,860.228L1324.847,860.228L1339.947,886.665C1341.37,889.207 1342.641,891.139 1345.387,891.139C1346.353,891.139 1347.42,890.935 1348.335,890.376C1350.217,889.258 1351.081,887.631 1351.03,885.851C1350.979,884.479 1350.572,883.564 1349.301,881.327L1336.337,858.703C1344.421,856.415 1350.674,849.806 1350.674,839.485C1350.674,827.182 1341.93,818.335 1328.203,818.335L1306.85,818.335C1305.223,818.335 1303.291,818.335 1301.715,819.911C1300.139,821.488 1300.139,823.419 1300.139,825.046L1300.139,883.665C1300.139,886.36 1300.19,887.224 1300.952,888.648ZM1327.389,828.097C1334.71,828.097 1339.693,832.418 1339.693,839.587C1339.693,846.704 1334.71,850.873 1327.389,850.873L1311.12,850.873L1311.12,828.097L1327.389,828.097Z" style="fill:rgb(199,20,23);fill-rule:nonzero;"/>
                <g transform="matrix(1,0,0,1,0,-10)">
                    <path d="M829.99,985.346L829.99,927.083C829.99,924.388 829.94,923.524 829.177,922.1C828.364,920.626 826.686,919.609 824.5,919.609C822.314,919.609 820.636,920.626 819.822,922.1C819.06,923.524 819.009,924.388 819.009,927.083L819.009,985.346C819.009,988.04 819.06,988.905 819.822,990.328C820.636,991.803 822.314,992.819 824.5,992.819C826.686,992.819 828.364,991.803 829.177,990.328C829.94,988.905 829.99,988.04 829.99,985.346Z" style="fill:rgb(27,33,38);fill-rule:nonzero;"/>
                </g>
                <g transform="matrix(1,0,0,1,0,-10)">
                    <path d="M844.277,921.592C842.701,923.168 842.701,925.1 842.701,926.727L842.701,985.702C842.701,987.329 842.701,989.261 844.277,990.837C845.853,992.413 847.785,992.413 849.411,992.413L868.172,992.413C877.272,992.413 883.881,989.515 888.711,983.312C893.795,976.805 894.151,969.077 894.151,956.214C894.151,943.352 893.897,935.726 888.813,929.218C883.932,923.066 877.272,920.016 868.172,920.016L849.411,920.016C847.785,920.016 845.853,920.016 844.277,921.592ZM853.682,929.777L866.901,929.777C872.137,929.777 876.306,931.201 879.356,934.709C882.966,938.776 883.169,945.487 883.169,956.214C883.169,966.942 882.966,973.653 879.356,977.72C876.306,981.228 872.137,982.651 866.901,982.651L853.682,982.651L853.682,929.777Z" style="fill:rgb(27,33,38);fill-rule:nonzero;"/>
                </g>
                <g transform="matrix(1,0,0,1,0,-10)">
                    <path d="M915.3,929.777L944.381,929.777C946.72,929.777 947.737,929.676 948.855,929.066C950.177,928.303 951.092,926.829 951.092,924.897C951.092,922.965 950.177,921.49 948.855,920.728C947.737,920.118 946.72,920.016 944.381,920.016L911.03,920.016C909.403,920.016 907.471,920.016 905.895,921.592C904.319,923.168 904.319,925.1 904.319,926.727L904.319,985.702C904.319,987.329 904.319,989.261 905.895,990.837C907.471,992.413 909.403,992.413 911.03,992.413L944.381,992.413C946.72,992.413 947.737,992.311 948.855,991.701C950.177,990.938 951.092,989.464 951.092,987.532C951.092,985.6 950.177,984.126 948.855,983.363C947.737,982.753 946.72,982.651 944.381,982.651L915.3,982.651L915.3,960.79L939.195,960.79C941.534,960.79 942.551,960.688 943.669,960.078C944.991,959.316 945.906,957.841 945.906,955.909C945.906,953.977 944.991,952.503 943.669,951.74C942.551,951.13 941.534,951.029 939.195,951.029L915.3,951.029L915.3,929.777Z" style="fill:rgb(27,33,38);fill-rule:nonzero;"/>
                </g>
                <g transform="matrix(1,0,0,1,0,-10)">
                    <path d="M993.239,968.518L970.055,968.518L981.647,936.844L993.239,968.518ZM996.645,977.872L1000.255,987.583C1001.17,990.023 1001.627,990.938 1002.644,991.752C1003.458,992.413 1004.474,992.819 1005.644,992.819C1007.169,992.819 1008.694,992.209 1009.66,991.192C1011.745,989.057 1011.084,986.769 1010.016,983.922L987.85,924.897C987.087,922.812 986.528,921.948 985.663,921.135C984.596,920.118 983.376,919.609 981.647,919.609C979.919,919.609 978.698,920.118 977.631,921.135C976.766,921.948 976.207,922.812 975.445,924.897L953.278,983.922C952.211,986.769 951.55,989.057 953.634,991.192C954.6,992.209 956.125,992.819 957.65,992.819C958.82,992.819 959.837,992.413 960.65,991.752C961.667,990.938 962.124,990.023 963.04,987.583L966.649,977.872L996.645,977.872Z" style="fill:rgb(27,33,38);fill-rule:nonzero;"/>
                </g>
                <g transform="matrix(1,0,0,1,0,-10)">
                    <path d="M1037.338,921.592C1035.762,923.168 1035.762,925.1 1035.762,926.727L1035.762,985.702C1035.762,987.329 1035.762,989.261 1037.338,990.837C1038.914,992.413 1040.846,992.413 1042.473,992.413L1061.233,992.413C1070.333,992.413 1076.942,989.515 1081.772,983.312C1086.856,976.805 1087.212,969.077 1087.212,956.214C1087.212,943.352 1086.958,935.726 1081.874,929.218C1076.993,923.066 1070.333,920.016 1061.233,920.016L1042.473,920.016C1040.846,920.016 1038.914,920.016 1037.338,921.592ZM1046.743,929.777L1059.962,929.777C1065.198,929.777 1069.367,931.201 1072.418,934.709C1076.027,938.776 1076.231,945.487 1076.231,956.214C1076.231,966.942 1076.027,973.653 1072.418,977.72C1069.367,981.228 1065.198,982.651 1059.962,982.651L1046.743,982.651L1046.743,929.777Z" style="fill:rgb(27,33,38);fill-rule:nonzero;"/>
                </g>
                <g transform="matrix(1,0,0,1,0,-10)">
                    <path d="M1108.362,929.777L1137.442,929.777C1139.781,929.777 1140.798,929.676 1141.916,929.066C1143.238,928.303 1144.153,926.829 1144.153,924.897C1144.153,922.965 1143.238,921.49 1141.916,920.728C1140.798,920.118 1139.781,920.016 1137.442,920.016L1104.091,920.016C1102.464,920.016 1100.532,920.016 1098.956,921.592C1097.38,923.168 1097.38,925.1 1097.38,926.727L1097.38,985.702C1097.38,987.329 1097.38,989.261 1098.956,990.837C1100.532,992.413 1102.464,992.413 1104.091,992.413L1137.442,992.413C1139.781,992.413 1140.798,992.311 1141.916,991.701C1143.238,990.938 1144.153,989.464 1144.153,987.532C1144.153,985.6 1143.238,984.126 1141.916,983.363C1140.798,982.753 1139.781,982.651 1137.442,982.651L1108.362,982.651L1108.362,960.79L1132.257,960.79C1134.595,960.79 1135.612,960.688 1136.731,960.078C1138.052,959.316 1138.968,957.841 1138.968,955.909C1138.968,953.977 1138.052,952.503 1136.731,951.74C1135.612,951.13 1134.595,951.029 1132.257,951.029L1108.362,951.029L1108.362,929.777Z" style="fill:rgb(27,33,38);fill-rule:nonzero;"/>
                </g>
                <g transform="matrix(1,0,0,1,0,-10)">
                    <path d="M1172.065,983.261C1165.811,983.261 1161.541,981.99 1156.66,978.635C1154.677,977.262 1153.406,976.805 1151.983,976.805C1150.813,976.805 1149.695,977.211 1148.78,978.126C1147.814,979.092 1147.254,980.516 1147.254,981.736C1147.254,984.38 1148.627,985.905 1152.389,988.142C1157.728,991.345 1163.168,993.023 1171.861,993.023C1187.113,993.023 1197.891,985.092 1197.891,971.771C1197.891,965.467 1195.858,960.485 1191.994,956.926C1188.842,954.079 1185.181,952.554 1178.572,951.537L1169.929,950.215C1165.964,949.605 1163.828,948.588 1161.998,946.961C1160.066,945.334 1159.354,942.894 1159.354,940.25C1159.354,933.641 1163.93,929.015 1172.471,929.015C1177.555,929.015 1180.962,929.93 1185.283,932.574C1186.757,933.489 1188.537,934.15 1189.706,934.15C1191.181,934.15 1192.248,933.54 1193.062,932.574C1193.926,931.557 1194.333,930.387 1194.333,929.218C1194.333,926.879 1192.452,924.998 1189.91,923.677C1183.91,920.524 1179.741,919.406 1172.878,919.406C1157.829,919.406 1148.678,927.947 1148.678,940.556C1148.678,946.453 1150.407,951.13 1154.016,954.435C1157.423,957.587 1161.846,959.417 1167.692,960.282L1176.284,961.502C1179.894,962.01 1182.334,962.925 1184.165,964.552C1186.198,966.281 1187.012,968.823 1187.012,972.076C1187.012,979.194 1181.623,983.261 1172.065,983.261Z" style="fill:rgb(27,33,38);fill-rule:nonzero;"/>
                </g>
                <g transform="matrix(1,0,0,1,0,-10)">
                    <path d="M1217.414,985.346L1217.414,927.083C1217.414,924.388 1217.363,923.524 1216.601,922.1C1215.787,920.626 1214.109,919.609 1211.923,919.609C1209.737,919.609 1208.059,920.626 1207.246,922.1C1206.483,923.524 1206.433,924.388 1206.433,927.083L1206.433,985.346C1206.433,988.04 1206.483,988.905 1207.246,990.328C1208.059,991.803 1209.737,992.819 1211.923,992.819C1214.109,992.819 1215.787,991.803 1216.601,990.328C1217.363,988.905 1217.414,988.04 1217.414,985.346Z" style="fill:rgb(27,33,38);fill-rule:nonzero;"/>
                </g>
                <g transform="matrix(1,0,0,1,0,-10)">
                    <path d="M1238.564,956.214C1238.564,942.437 1239.072,937.81 1242.885,933.692C1245.529,930.845 1249.037,929.167 1253.307,929.167C1260.12,929.167 1264.136,932.777 1266.78,938.979C1267.593,940.861 1268.305,942.182 1269.475,943.098C1270.237,943.708 1271.356,944.165 1272.728,944.165C1274.254,944.165 1275.474,943.657 1276.541,942.64C1277.558,941.623 1278.016,940.403 1278.016,938.522C1278.016,935.929 1276.541,931.252 1272.474,926.879C1268.051,922.151 1262.611,919.406 1253.511,919.406C1245.63,919.406 1239.53,922.1 1234.852,926.778C1227.836,933.794 1227.582,941.013 1227.582,956.214C1227.582,971.416 1227.836,978.635 1234.852,985.651C1239.53,990.328 1245.63,993.023 1253.612,993.023C1261.289,993.023 1267.136,990.582 1272.169,985.549C1277.812,979.906 1279.033,973.703 1279.033,961.908L1279.033,960.841C1279.033,959.214 1279.033,957.282 1277.457,955.706C1275.88,954.13 1273.949,954.13 1272.322,954.13L1259.307,954.13C1256.968,954.13 1255.951,954.232 1254.833,954.842C1253.511,955.604 1252.596,957.079 1252.596,959.011C1252.596,960.942 1253.511,962.417 1254.833,963.179C1255.951,963.79 1256.968,963.891 1259.307,963.891L1268.458,963.891C1268.458,971.517 1267.695,975.432 1264.34,978.889C1261.543,981.685 1257.883,983.261 1253.612,983.261C1249.189,983.261 1245.478,981.584 1242.834,978.737C1239.225,974.924 1238.564,970.551 1238.564,956.214Z" style="fill:rgb(27,33,38);fill-rule:nonzero;"/>
                </g>
                <g transform="matrix(1,0,0,1,0,-10)">
                    <path d="M1300.182,941.572L1331.601,987.99C1333.788,991.243 1335.414,992.819 1338.007,992.819C1339.685,992.819 1341.058,992.209 1342.176,991.091C1343.396,989.871 1343.752,988.244 1343.752,985.854L1343.752,927.083C1343.752,924.388 1343.701,923.524 1342.939,922.1C1342.125,920.626 1340.448,919.609 1338.262,919.609C1336.075,919.609 1334.398,920.626 1333.584,922.1C1332.822,923.524 1332.771,924.388 1332.771,927.083L1332.771,970.856L1301.351,924.439C1299.165,921.185 1297.538,919.609 1294.946,919.609C1293.268,919.609 1291.895,920.219 1290.777,921.338C1289.556,922.558 1289.201,924.236 1289.201,926.625L1289.201,985.346C1289.201,988.04 1289.251,988.905 1290.014,990.328C1290.827,991.803 1292.505,992.819 1294.691,992.819C1296.877,992.819 1298.555,991.803 1299.369,990.328C1300.131,988.905 1300.182,988.04 1300.182,985.346L1300.182,941.572Z" style="fill:rgb(27,33,38);fill-rule:nonzero;"/>
                </g>
            </g>
        </g>
    </g>
</svg>
